<svg width="24" height="24" viewBox="0 0 24 24" fill="none" xmlns="http://www.w3.org/2000/svg">
<g clip-path="url(#clip0_1131_98)">
<path d="M20.2762 21.2444C19.2531 22.7729 18.1684 24.2644 16.5167 24.289C14.865 24.326 14.3349 23.3153 12.4613 23.3153C10.5754 23.3153 9.9961 24.2644 8.43067 24.326C6.81594 24.3876 5.59564 22.6989 4.56024 21.2075C2.45246 18.1629 0.837726 12.5545 3.00714 8.78265C4.07952 6.90907 6.00241 5.72575 8.08554 5.68877C9.66329 5.66412 11.1671 6.76115 12.1409 6.76115C13.1023 6.76115 14.9266 5.44225 16.8371 5.63947C17.6383 5.67645 19.8817 5.95995 21.3239 8.08006C21.2129 8.15401 18.6491 9.65781 18.6737 12.7763C18.7107 16.4989 21.9402 17.7438 21.9772 17.7561C21.9402 17.8424 21.4595 19.5311 20.2762 21.2444ZM13.2379 1.52252C14.1377 0.49944 15.6292 -0.277111 16.8618 -0.326416C17.022 1.11575 16.4427 2.57024 15.5799 3.60564C14.7294 4.65337 13.3242 5.4669 11.9436 5.35597C11.7587 3.93845 12.449 2.45931 13.2379 1.52252Z" fill="white"/>
</g>
<defs>
<clipPath id="clip0_1131_98">
<rect width="24" height="24" fill="white"/>
</clipPath>
</defs>
</svg>
