<svg width="24" height="24" viewBox="0 0 24 24" fill="none" xmlns="http://www.w3.org/2000/svg">
<path opacity="0.987" fill-rule="evenodd" clip-rule="evenodd" d="M10.8135 1.59137C11.901 1.46987 12.5445 1.46987 13.713 1.59137C15.7814 1.89751 17.6988 2.8536 19.188 4.32137C18.1817 5.27257 17.1886 6.23766 16.209 7.21637C14.333 5.62637 12.239 5.25937 9.927 6.11537C8.231 6.89537 7.05 8.15937 6.384 9.90737C5.29566 9.09711 4.2215 8.26799 3.162 7.42037C3.08837 7.38161 3.00427 7.36742 2.922 7.37987C4.605 4.13487 7.235 2.20487 10.812 1.58987" fill="#F44336"/>
<path opacity="0.997" fill-rule="evenodd" clip-rule="evenodd" d="M2.91901 7.38003C3.00401 7.36703 3.08451 7.38053 3.16051 7.42053C4.22001 8.26815 5.29417 9.09727 6.38251 9.90753C6.21125 10.5886 6.10329 11.2841 6.06001 11.985C6.09701 12.663 6.20451 13.3285 6.38251 13.9815L3.00001 16.674C1.52701 13.596 1.50001 10.498 2.91901 7.38003Z" fill="#FFC107"/>
<path opacity="0.999" fill-rule="evenodd" clip-rule="evenodd" d="M19.0275 19.9349C17.9743 19.006 16.8717 18.1348 15.7245 17.3249C16.8745 16.5129 17.5725 15.3989 17.8185 13.9829H12.183V10.0694C15.433 10.0424 18.6815 10.0699 21.9285 10.1519C22.5445 13.4969 21.833 16.5129 19.794 19.1999C19.5516 19.4576 19.2947 19.7029 19.0275 19.9349Z" fill="#448AFF"/>
<path opacity="0.993" fill-rule="evenodd" clip-rule="evenodd" d="M6.3825 13.9832C7.6125 17.0402 9.8675 18.4672 13.1475 18.2642C14.0682 18.1576 14.951 17.8359 15.7245 17.3252C16.8725 18.1372 17.9735 19.0072 19.0275 19.9352C17.3575 21.4358 15.2282 22.3263 12.987 22.4612C12.4778 22.5019 11.9662 22.5019 11.457 22.4612C7.639 22.0112 4.82 20.0822 3 16.6742L6.3825 13.9832Z" fill="#43A047"/>
</svg>
